<?xml version="1.0" encoding="UTF-8"?>
<svg version="1.1" xmlns="http://www.w3.org/2000/svg" xmlns:xlink="http://www.w3.org/1999/xlink" viewBox="247.704 436.205 1067.119 99.784" preserveAspectRatio="xMidYMid meet">
<style>
	path { 
        stroke: #FFD700 !important; 
        fill: none !important;
        stroke-width: 4; /* 根据你的 viewBox 大小，如果线条太细可以调大这个值 */
    }

    .path-anim-0 {
      stroke-dasharray: 139.86;
      stroke-dashoffset: 139.86;
      animation: loop-draw-0 6.00s ease-in-out infinite;
    }
    @keyframes loop-draw-0 {
      0%, 0.00% { stroke-dashoffset: 139.86; }
      1.10%, 66.67% { stroke-dashoffset: 0; }
      67.22%, 100% { stroke-dashoffset: 139.86; }
    }
    .path-anim-1 {
      stroke-dasharray: 315.13;
      stroke-dashoffset: 315.13;
      animation: loop-draw-1 6.00s ease-in-out infinite;
    }
    @keyframes loop-draw-1 {
      0%, 1.10% { stroke-dashoffset: 315.13; }
      3.57%, 66.67% { stroke-dashoffset: 0; }
      68.45%, 100% { stroke-dashoffset: 315.13; }
    }
    .path-anim-2 {
      stroke-dasharray: 248.45;
      stroke-dashoffset: 248.45;
      animation: loop-draw-2 6.00s ease-in-out infinite;
    }
    @keyframes loop-draw-2 {
      0%, 3.57% { stroke-dashoffset: 248.45; }
      5.53%, 66.67% { stroke-dashoffset: 0; }
      69.43%, 100% { stroke-dashoffset: 248.45; }
    }
    .path-anim-3 {
      stroke-dasharray: 134.08;
      stroke-dashoffset: 134.08;
      animation: loop-draw-3 6.00s ease-in-out infinite;
    }
    @keyframes loop-draw-3 {
      0%, 5.53% { stroke-dashoffset: 134.08; }
      6.58%, 66.67% { stroke-dashoffset: 0; }
      69.96%, 100% { stroke-dashoffset: 134.08; }
    }
    .path-anim-4 {
      stroke-dasharray: 134.98;
      stroke-dashoffset: 134.98;
      animation: loop-draw-4 6.00s ease-in-out infinite;
    }
    @keyframes loop-draw-4 {
      0%, 6.58% { stroke-dashoffset: 134.98; }
      7.64%, 66.67% { stroke-dashoffset: 0; }
      70.49%, 100% { stroke-dashoffset: 134.98; }
    }
    .path-anim-5 {
      stroke-dasharray: 262.33;
      stroke-dashoffset: 262.33;
      animation: loop-draw-5 6.00s ease-in-out infinite;
    }
    @keyframes loop-draw-5 {
      0%, 7.64% { stroke-dashoffset: 262.33; }
      9.70%, 66.67% { stroke-dashoffset: 0; }
      71.52%, 100% { stroke-dashoffset: 262.33; }
    }
    .path-anim-6 {
      stroke-dasharray: 239.98;
      stroke-dashoffset: 239.98;
      animation: loop-draw-6 6.00s ease-in-out infinite;
    }
    @keyframes loop-draw-6 {
      0%, 9.70% { stroke-dashoffset: 239.98; }
      11.58%, 66.67% { stroke-dashoffset: 0; }
      72.46%, 100% { stroke-dashoffset: 239.98; }
    }
    .path-anim-7 {
      stroke-dasharray: 233.01;
      stroke-dashoffset: 233.01;
      animation: loop-draw-7 6.00s ease-in-out infinite;
    }
    @keyframes loop-draw-7 {
      0%, 11.58% { stroke-dashoffset: 233.01; }
      13.42%, 66.67% { stroke-dashoffset: 0; }
      73.37%, 100% { stroke-dashoffset: 233.01; }
    }
    .path-anim-8 {
      stroke-dasharray: 132.35;
      stroke-dashoffset: 132.35;
      animation: loop-draw-8 6.00s ease-in-out infinite;
    }
    @keyframes loop-draw-8 {
      0%, 13.42% { stroke-dashoffset: 132.35; }
      14.45%, 66.67% { stroke-dashoffset: 0; }
      73.89%, 100% { stroke-dashoffset: 132.35; }
    }
    .path-anim-9 {
      stroke-dasharray: 52.62;
      stroke-dashoffset: 52.62;
      animation: loop-draw-9 6.00s ease-in-out infinite;
    }
    @keyframes loop-draw-9 {
      0%, 14.45% { stroke-dashoffset: 52.62; }
      14.87%, 66.67% { stroke-dashoffset: 0; }
      74.10%, 100% { stroke-dashoffset: 52.62; }
    }
    .path-anim-10 {
      stroke-dasharray: 3.98;
      stroke-dashoffset: 3.98;
      animation: loop-draw-10 6.00s ease-in-out infinite;
    }
    @keyframes loop-draw-10 {
      0%, 14.87% { stroke-dashoffset: 3.98; }
      14.90%, 66.67% { stroke-dashoffset: 0; }
      74.12%, 100% { stroke-dashoffset: 3.98; }
    }
    .path-anim-11 {
      stroke-dasharray: 174.09;
      stroke-dashoffset: 174.09;
      animation: loop-draw-11 6.00s ease-in-out infinite;
    }
    @keyframes loop-draw-11 {
      0%, 14.90% { stroke-dashoffset: 174.09; }
      16.27%, 66.67% { stroke-dashoffset: 0; }
      74.80%, 100% { stroke-dashoffset: 174.09; }
    }
    .path-anim-12 {
      stroke-dasharray: 109.80;
      stroke-dashoffset: 109.80;
      animation: loop-draw-12 6.00s ease-in-out infinite;
    }
    @keyframes loop-draw-12 {
      0%, 16.27% { stroke-dashoffset: 109.80; }
      17.13%, 66.67% { stroke-dashoffset: 0; }
      75.23%, 100% { stroke-dashoffset: 109.80; }
    }
    .path-anim-13 {
      stroke-dasharray: 59.04;
      stroke-dashoffset: 59.04;
      animation: loop-draw-13 6.00s ease-in-out infinite;
    }
    @keyframes loop-draw-13 {
      0%, 17.13% { stroke-dashoffset: 59.04; }
      17.59%, 66.67% { stroke-dashoffset: 0; }
      75.46%, 100% { stroke-dashoffset: 59.04; }
    }
    .path-anim-14 {
      stroke-dasharray: 313.83;
      stroke-dashoffset: 313.83;
      animation: loop-draw-14 6.00s ease-in-out infinite;
    }
    @keyframes loop-draw-14 {
      0%, 17.59% { stroke-dashoffset: 313.83; }
      20.06%, 66.67% { stroke-dashoffset: 0; }
      76.70%, 100% { stroke-dashoffset: 313.83; }
    }
    .path-anim-15 {
      stroke-dasharray: 201.62;
      stroke-dashoffset: 201.62;
      animation: loop-draw-15 6.00s ease-in-out infinite;
    }
    @keyframes loop-draw-15 {
      0%, 20.06% { stroke-dashoffset: 201.62; }
      21.64%, 66.67% { stroke-dashoffset: 0; }
      77.49%, 100% { stroke-dashoffset: 201.62; }
    }
    .path-anim-16 {
      stroke-dasharray: 161.60;
      stroke-dashoffset: 161.60;
      animation: loop-draw-16 6.00s ease-in-out infinite;
    }
    @keyframes loop-draw-16 {
      0%, 21.64% { stroke-dashoffset: 161.60; }
      22.91%, 66.67% { stroke-dashoffset: 0; }
      78.12%, 100% { stroke-dashoffset: 161.60; }
    }
    .path-anim-17 {
      stroke-dasharray: 113.20;
      stroke-dashoffset: 113.20;
      animation: loop-draw-17 6.00s ease-in-out infinite;
    }
    @keyframes loop-draw-17 {
      0%, 22.91% { stroke-dashoffset: 113.20; }
      23.80%, 66.67% { stroke-dashoffset: 0; }
      78.57%, 100% { stroke-dashoffset: 113.20; }
    }
    .path-anim-18 {
      stroke-dasharray: 297.92;
      stroke-dashoffset: 297.92;
      animation: loop-draw-18 6.00s ease-in-out infinite;
    }
    @keyframes loop-draw-18 {
      0%, 23.80% { stroke-dashoffset: 297.92; }
      26.14%, 66.67% { stroke-dashoffset: 0; }
      79.74%, 100% { stroke-dashoffset: 297.92; }
    }
    .path-anim-19 {
      stroke-dasharray: 226.14;
      stroke-dashoffset: 226.14;
      animation: loop-draw-19 6.00s ease-in-out infinite;
    }
    @keyframes loop-draw-19 {
      0%, 26.14% { stroke-dashoffset: 226.14; }
      27.92%, 66.67% { stroke-dashoffset: 0; }
      80.63%, 100% { stroke-dashoffset: 226.14; }
    }
    .path-anim-20 {
      stroke-dasharray: 112.88;
      stroke-dashoffset: 112.88;
      animation: loop-draw-20 6.00s ease-in-out infinite;
    }
    @keyframes loop-draw-20 {
      0%, 27.92% { stroke-dashoffset: 112.88; }
      28.80%, 66.67% { stroke-dashoffset: 0; }
      81.07%, 100% { stroke-dashoffset: 112.88; }
    }
    .path-anim-21 {
      stroke-dasharray: 68.76;
      stroke-dashoffset: 68.76;
      animation: loop-draw-21 6.00s ease-in-out infinite;
    }
    @keyframes loop-draw-21 {
      0%, 28.80% { stroke-dashoffset: 68.76; }
      29.34%, 66.67% { stroke-dashoffset: 0; }
      81.34%, 100% { stroke-dashoffset: 68.76; }
    }
    .path-anim-22 {
      stroke-dasharray: 116.13;
      stroke-dashoffset: 116.13;
      animation: loop-draw-22 6.00s ease-in-out infinite;
    }
    @keyframes loop-draw-22 {
      0%, 29.34% { stroke-dashoffset: 116.13; }
      30.26%, 66.67% { stroke-dashoffset: 0; }
      81.79%, 100% { stroke-dashoffset: 116.13; }
    }
    .path-anim-23 {
      stroke-dasharray: 68.89;
      stroke-dashoffset: 68.89;
      animation: loop-draw-23 6.00s ease-in-out infinite;
    }
    @keyframes loop-draw-23 {
      0%, 30.26% { stroke-dashoffset: 68.89; }
      30.80%, 66.67% { stroke-dashoffset: 0; }
      82.07%, 100% { stroke-dashoffset: 68.89; }
    }
    .path-anim-24 {
      stroke-dasharray: 262.30;
      stroke-dashoffset: 262.30;
      animation: loop-draw-24 6.00s ease-in-out infinite;
    }
    @keyframes loop-draw-24 {
      0%, 30.80% { stroke-dashoffset: 262.30; }
      32.86%, 66.67% { stroke-dashoffset: 0; }
      83.10%, 100% { stroke-dashoffset: 262.30; }
    }
    .path-anim-25 {
      stroke-dasharray: 58.04;
      stroke-dashoffset: 58.04;
      animation: loop-draw-25 6.00s ease-in-out infinite;
    }
    @keyframes loop-draw-25 {
      0%, 32.86% { stroke-dashoffset: 58.04; }
      33.31%, 66.67% { stroke-dashoffset: 0; }
      83.32%, 100% { stroke-dashoffset: 58.04; }
    }
    .path-anim-26 {
      stroke-dasharray: 2.46;
      stroke-dashoffset: 2.46;
      animation: loop-draw-26 6.00s ease-in-out infinite;
    }
    @keyframes loop-draw-26 {
      0%, 33.31% { stroke-dashoffset: 2.46; }
      33.33%, 66.67% { stroke-dashoffset: 0; }
      83.33%, 100% { stroke-dashoffset: 2.46; }
    }
  </style>
  <path class="path-anim-0" d="M 271.71,444.60 C 271.41 445.18, 271.24 445.94, 270.67 447.59 C 270.09 449.24, 269.69 450.33, 268.84 452.86 C 267.98 455.39, 267.50 457.08, 266.39 460.26 C 265.28 463.44, 264.59 465.27, 263.27 468.76 C 261.96 472.26, 261.18 474.17, 259.83 477.73 C 258.48 481.30, 257.73 483.20, 256.51 486.58 C 255.30 489.97, 254.69 491.70, 253.75 494.66 C 252.82 497.62, 252.42 499.05, 251.84 501.38 C 251.26 503.71, 251.07 504.76, 250.85 506.32 C 250.63 507.87, 250.71 508.35, 250.76 509.15 C 250.81 509.95, 250.99 510.09, 251.11 510.32 C 251.22 510.55, 251.29 510.52, 251.34 510.29 C 251.39 510.06, 251.26 509.93, 251.35 509.17 C 251.45 508.41, 251.48 507.98, 251.79 506.48 C 252.10 504.97, 252.31 503.95, 252.90 501.65 C 253.50 499.35, 253.87 497.93, 254.77 494.98 C 255.67 492.03, 256.23 490.29, 257.42 486.91 C 258.61 483.52, 259.35 481.63, 260.71 478.07 C 262.07 474.52, 262.86 472.61, 264.22 469.13 C 265.58 465.64, 266.32 463.83, 267.51 460.66 C 268.70 457.50, 269.32 455.86, 270.16 453.30 C 271.00 450.75, 271.29 449.61, 271.69 447.89 C 272.09 446.17, 272.17 445.38, 272.18 444.72 C 272.18 444.06, 272.02 444.03, 271.71 444.60" fill="none" stroke="currentColor" stroke-width="2" stroke-linecap="round" />
  <path class="path-anim-1" d="M 274.25,443.79 C 274.06 444.22, 273.98 444.73, 273.80 445.94 C 273.63 447.15, 273.52 447.97, 273.37 449.85 C 273.21 451.73, 273.17 453.05, 273.05 455.35 C 272.93 457.65, 272.87 458.97, 272.76 461.35 C 272.65 463.73, 272.55 464.99, 272.50 467.24 C 272.45 469.50, 272.44 470.63, 272.53 472.61 C 272.63 474.60, 272.68 475.56, 272.97 477.16 C 273.26 478.75, 273.44 479.48, 273.98 480.59 C 274.52 481.70, 274.86 482.17, 275.67 482.71 C 276.47 483.24, 276.95 483.39, 278.02 483.26 C 279.10 483.13, 279.68 482.89, 281.03 482.04 C 282.38 481.18, 283.13 480.57, 284.77 478.99 C 286.41 477.42, 287.36 476.36, 289.23 474.15 C 291.11 471.93, 292.14 470.51, 294.14 467.93 C 296.14 465.35, 297.25 463.86, 299.24 461.24 C 301.23 458.63, 302.31 457.23, 304.09 454.85 C 305.87 452.48, 306.74 451.28, 308.15 449.39 C 309.55 447.49, 310.18 446.62, 311.11 445.37 C 312.03 444.12, 312.37 443.63, 312.77 443.12 C 313.17 442.61, 313.22 442.44, 313.09 442.84 C 312.97 443.23, 312.73 443.69, 312.15 445.11 C 311.58 446.52, 311.13 447.59, 310.21 449.91 C 309.29 452.22, 308.75 453.75, 307.54 456.67 C 306.33 459.58, 305.56 461.33, 304.15 464.50 C 302.74 467.67, 301.91 469.40, 300.50 472.52 C 299.08 475.65, 298.32 477.26, 297.07 480.11 C 295.83 482.97, 295.20 484.36, 294.26 486.80 C 293.33 489.23, 292.96 490.39, 292.42 492.28 C 291.88 494.16, 291.79 495.00, 291.58 496.22 C 291.38 497.45, 291.37 497.79, 291.40 498.42 C 291.43 499.05, 291.58 499.18, 291.73 499.38 C 291.88 499.57, 292.05 499.42, 292.13 499.39 C 292.22 499.37, 292.16 499.28, 292.14 499.25 C 292.12 499.22, 292.03 499.41, 292.02 499.25 C 292.01 499.09, 292.00 499.02, 292.10 498.45 C 292.19 497.89, 292.22 497.58, 292.49 496.40 C 292.76 495.23, 292.87 494.42, 293.44 492.58 C 294.01 490.74, 294.41 489.62, 295.33 487.21 C 296.26 484.80, 296.85 483.39, 298.07 480.54 C 299.29 477.69, 300.03 476.07, 301.45 472.96 C 302.87 469.84, 303.69 468.11, 305.15 464.95 C 306.61 461.80, 307.43 460.08, 308.73 457.18 C 310.03 454.28, 310.72 452.81, 311.64 450.47 C 312.57 448.14, 312.96 447.03, 313.34 445.49 C 313.72 443.96, 313.72 443.37, 313.53 442.81 C 313.35 442.25, 313.04 442.30, 312.40 442.69 C 311.75 443.07, 311.35 443.54, 310.32 444.74 C 309.29 445.95, 308.67 446.82, 307.23 448.70 C 305.80 450.58, 304.93 451.78, 303.16 454.15 C 301.38 456.53, 300.34 457.96, 298.35 460.57 C 296.36 463.18, 295.25 464.66, 293.21 467.20 C 291.18 469.74, 290.07 471.09, 288.19 473.25 C 286.30 475.41, 285.36 476.45, 283.80 478.00 C 282.23 479.56, 281.53 480.16, 280.34 481.03 C 279.16 481.89, 278.70 482.15, 277.86 482.35 C 277.02 482.55, 276.73 482.46, 276.13 482.03 C 275.54 481.59, 275.29 481.20, 274.87 480.19 C 274.46 479.18, 274.29 478.50, 274.06 476.98 C 273.82 475.45, 273.77 474.50, 273.70 472.56 C 273.64 470.62, 273.66 469.51, 273.74 467.28 C 273.81 465.05, 273.94 463.79, 274.10 461.42 C 274.26 459.06, 274.38 457.73, 274.52 455.43 C 274.66 453.14, 274.73 451.82, 274.80 449.94 C 274.86 448.05, 274.88 447.23, 274.87 446.01 C 274.85 444.79, 274.84 444.27, 274.72 443.83 C 274.59 443.38, 274.43 443.37, 274.25 443.79" fill="none" stroke="currentColor" stroke-width="2" stroke-linecap="round" />
  <path class="path-anim-2" d="M 316.54,484.69 C 316.76 484.90, 317.02 485.16, 317.76 485.31 C 318.49 485.45, 318.98 485.53, 320.23 485.41 C 321.47 485.29, 322.34 485.18, 324.01 484.70 C 325.68 484.23, 326.70 483.83, 328.57 483.06 C 330.45 482.28, 331.51 481.79, 333.38 480.85 C 335.26 479.91, 336.28 479.36, 337.95 478.34 C 339.61 477.33, 340.46 476.79, 341.69 475.79 C 342.91 474.79, 343.45 474.30, 344.08 473.35 C 344.70 472.41, 344.89 471.89, 344.80 471.06 C 344.72 470.23, 344.49 469.76, 343.65 469.20 C 342.82 468.65, 342.18 468.38, 340.63 468.28 C 339.08 468.19, 338.04 468.24, 335.90 468.73 C 333.76 469.21, 332.43 469.64, 329.93 470.72 C 327.43 471.79, 325.98 472.56, 323.42 474.09 C 320.87 475.63, 319.43 476.59, 317.15 478.38 C 314.87 480.17, 313.73 481.21, 312.04 483.05 C 310.34 484.89, 309.61 485.85, 308.69 487.58 C 307.78 489.31, 307.50 490.17, 307.44 491.68 C 307.37 493.18, 307.58 493.92, 308.37 495.12 C 309.15 496.31, 309.79 496.88, 311.35 497.66 C 312.92 498.45, 313.96 498.74, 316.18 499.05 C 318.39 499.36, 319.75 499.37, 322.44 499.20 C 325.14 499.03, 326.70 498.78, 329.66 498.21 C 332.61 497.63, 334.46 497.11, 337.21 496.33 C 339.97 495.54, 341.39 495.05, 343.42 494.29 C 345.46 493.52, 346.63 492.93, 347.39 492.50 C 348.16 492.06, 348.10 491.94, 347.25 492.10 C 346.39 492.27, 345.19 492.74, 343.11 493.33 C 341.03 493.92, 339.60 494.34, 336.86 495.06 C 334.12 495.78, 332.31 496.37, 329.41 496.93 C 326.51 497.49, 324.97 497.69, 322.36 497.85 C 319.74 498.02, 318.45 498.00, 316.34 497.76 C 314.24 497.51, 313.28 497.27, 311.84 496.64 C 310.40 496.00, 309.83 495.57, 309.13 494.59 C 308.44 493.61, 308.25 493.03, 308.34 491.73 C 308.44 490.43, 308.69 489.66, 309.61 488.09 C 310.52 486.51, 311.23 485.60, 312.90 483.86 C 314.56 482.12, 315.69 481.10, 317.93 479.38 C 320.17 477.65, 321.57 476.68, 324.08 475.21 C 326.60 473.74, 328.06 473.04, 330.49 472.02 C 332.91 471.00, 334.21 470.60, 336.23 470.10 C 338.25 469.61, 339.20 469.57, 340.60 469.54 C 342.00 469.52, 342.51 469.67, 343.21 469.99 C 343.91 470.30, 344.06 470.56, 344.08 471.12 C 344.10 471.68, 343.94 472.04, 343.32 472.80 C 342.70 473.55, 342.19 474.00, 340.99 474.89 C 339.78 475.78, 338.94 476.31, 337.30 477.26 C 335.66 478.21, 334.64 478.75, 332.79 479.65 C 330.94 480.55, 329.88 481.02, 328.04 481.74 C 326.21 482.47, 325.20 482.83, 323.60 483.29 C 322.00 483.75, 321.20 483.85, 320.04 484.05 C 318.89 484.26, 318.51 484.28, 317.83 484.32 C 317.16 484.35, 316.93 484.17, 316.67 484.24 C 316.42 484.32, 316.33 484.47, 316.54 484.69" fill="none" stroke="currentColor" stroke-width="2" stroke-linecap="round" />
  <path class="path-anim-3" d="M 365.89,475.47 C 365.64 475.75, 365.52 476.17, 365.09 477.05 C 364.65 477.92, 364.35 478.50, 363.73 479.85 C 363.11 481.19, 362.71 482.18, 361.98 483.78 C 361.24 485.38, 360.81 486.32, 360.05 487.83 C 359.30 489.33, 358.83 490.14, 358.22 491.29 C 357.61 492.45, 357.30 493.00, 357.01 493.61 C 356.71 494.22, 356.68 494.43, 356.74 494.35 C 356.80 494.27, 356.94 494.03, 357.29 493.21 C 357.63 492.40, 357.87 491.69, 358.48 490.27 C 359.09 488.86, 359.42 487.85, 360.33 486.14 C 361.24 484.42, 361.78 483.41, 363.01 481.70 C 364.25 480.00, 365.02 479.10, 366.51 477.61 C 368.00 476.13, 368.86 475.43, 370.48 474.29 C 372.09 473.15, 372.96 472.68, 374.58 471.92 C 376.20 471.16, 377.05 470.86, 378.56 470.50 C 380.06 470.15, 380.78 470.13, 382.09 470.14 C 383.41 470.16, 384.13 470.40, 385.13 470.59 C 386.13 470.77, 386.47 470.89, 387.10 471.07 C 387.73 471.25, 388.01 471.45, 388.29 471.47 C 388.56 471.49, 388.63 471.39, 388.45 471.16 C 388.28 470.94, 388.01 470.67, 387.40 470.34 C 386.78 470.01, 386.42 469.79, 385.36 469.53 C 384.31 469.26, 383.52 469.04, 382.11 469.01 C 380.70 468.99, 379.90 469.04, 378.30 469.41 C 376.70 469.78, 375.79 470.08, 374.09 470.86 C 372.39 471.64, 371.48 472.14, 369.79 473.31 C 368.10 474.48, 367.20 475.19, 365.63 476.71 C 364.05 478.23, 363.25 479.15, 361.93 480.90 C 360.61 482.64, 360.00 483.67, 359.02 485.43 C 358.05 487.19, 357.61 488.20, 357.05 489.70 C 356.50 491.21, 356.34 491.99, 356.24 492.95 C 356.14 493.91, 356.27 494.26, 356.55 494.49 C 356.83 494.72, 357.10 494.60, 357.64 494.08 C 358.19 493.57, 358.54 493.03, 359.27 491.91 C 359.99 490.78, 360.45 489.96, 361.27 488.46 C 362.08 486.96, 362.58 486.02, 363.34 484.41 C 364.09 482.80, 364.51 481.81, 365.06 480.41 C 365.61 479.01, 365.83 478.38, 366.09 477.42 C 366.34 476.46, 366.39 476.00, 366.35 475.61 C 366.31 475.22, 366.14 475.18, 365.89 475.47" fill="none" stroke="currentColor" stroke-width="2" stroke-linecap="round" />
  <path class="path-anim-4" d="M 402.56,474.73 C 402.29 474.94, 402.09 475.22, 401.60 476.00 C 401.11 476.78, 400.81 477.34, 400.10 478.63 C 399.39 479.91, 398.91 480.82, 398.06 482.41 C 397.22 484.00, 396.73 484.98, 395.87 486.58 C 395.01 488.19, 394.49 489.09, 393.77 490.43 C 393.05 491.77, 392.66 492.42, 392.27 493.28 C 391.89 494.14, 391.80 494.49, 391.84 494.72 C 391.87 494.95, 392.06 494.90, 392.46 494.42 C 392.86 493.94, 393.16 493.45, 393.84 492.32 C 394.52 491.20, 394.90 490.33, 395.85 488.79 C 396.79 487.24, 397.32 486.26, 398.57 484.60 C 399.82 482.93, 400.58 482.00, 402.09 480.46 C 403.61 478.92, 404.49 478.14, 406.14 476.89 C 407.79 475.64, 408.71 475.08, 410.35 474.21 C 411.99 473.34, 412.86 473.00, 414.35 472.54 C 415.85 472.08, 416.55 471.99, 417.83 471.92 C 419.10 471.85, 419.71 472.01, 420.73 472.19 C 421.75 472.36, 422.20 472.59, 422.93 472.81 C 423.67 473.04, 424.08 473.28, 424.42 473.31 C 424.75 473.33, 424.84 473.21, 424.61 472.95 C 424.37 472.68, 424.00 472.35, 423.26 471.99 C 422.53 471.62, 422.03 471.36, 420.93 471.13 C 419.84 470.91, 419.15 470.78, 417.77 470.85 C 416.39 470.92, 415.63 471.01, 414.03 471.47 C 412.44 471.94, 411.53 472.28, 409.81 473.17 C 408.08 474.05, 407.13 474.62, 405.40 475.90 C 403.67 477.17, 402.75 477.97, 401.17 479.54 C 399.58 481.11, 398.79 482.06, 397.46 483.74 C 396.13 485.43, 395.51 486.40, 394.53 487.98 C 393.55 489.56, 393.11 490.42, 392.56 491.65 C 392.00 492.87, 391.86 493.45, 391.75 494.10 C 391.64 494.74, 391.74 494.93, 392.02 494.87 C 392.29 494.80, 392.55 494.54, 393.12 493.78 C 393.69 493.02, 394.08 492.36, 394.87 491.06 C 395.66 489.75, 396.18 488.84, 397.08 487.26 C 397.99 485.67, 398.53 484.72, 399.39 483.12 C 400.25 481.53, 400.76 480.62, 401.39 479.29 C 402.03 477.96, 402.23 477.33, 402.55 476.46 C 402.87 475.59, 402.97 475.28, 402.97 474.93 C 402.97 474.59, 402.84 474.52, 402.56 474.73" fill="none" stroke="currentColor" stroke-width="2" stroke-linecap="round" />
  <path class="path-anim-5" d="M 440.27,473.48 C 440.05 473.66, 439.88 473.85, 439.61 474.50 C 439.33 475.15, 439.09 475.65, 438.90 476.74 C 438.70 477.83, 438.58 478.61, 438.63 479.95 C 438.68 481.30, 438.77 482.13, 439.13 483.45 C 439.49 484.77, 439.72 485.47, 440.42 486.55 C 441.12 487.63, 441.57 488.14, 442.64 488.86 C 443.71 489.57, 444.37 489.85, 445.76 490.12 C 447.16 490.39, 447.97 490.40, 449.62 490.22 C 451.28 490.04, 452.23 489.82, 454.05 489.22 C 455.88 488.63, 456.88 488.18, 458.75 487.24 C 460.63 486.31, 461.62 485.71, 463.42 484.56 C 465.22 483.41, 466.19 482.72, 467.74 481.50 C 469.29 480.28, 470.06 479.57, 471.18 478.46 C 472.30 477.36, 472.77 476.77, 473.34 475.96 C 473.91 475.14, 474.03 474.73, 474.04 474.38 C 474.04 474.03, 473.79 473.92, 473.37 474.19 C 472.95 474.46, 472.57 474.78, 471.95 475.74 C 471.32 476.70, 470.97 477.42, 470.26 479.00 C 469.55 480.57, 469.18 481.58, 468.41 483.61 C 467.63 485.64, 467.21 486.82, 466.39 489.16 C 465.56 491.49, 465.16 492.80, 464.29 495.28 C 463.42 497.77, 462.97 499.08, 462.03 501.59 C 461.10 504.10, 460.62 505.39, 459.63 507.81 C 458.64 510.24, 458.14 511.48, 457.08 513.72 C 456.03 515.96, 455.46 517.05, 454.34 519.03 C 453.22 521.00, 452.63 521.94, 451.47 523.58 C 450.32 525.22, 449.71 525.98, 448.55 527.24 C 447.40 528.49, 446.80 529.02, 445.71 529.85 C 444.61 530.69, 444.06 530.99, 443.07 531.42 C 442.09 531.84, 441.58 531.93, 440.77 531.98 C 439.95 532.04, 439.58 531.97, 438.99 531.71 C 438.39 531.45, 438.14 531.22, 437.80 530.69 C 437.46 530.16, 437.41 529.83, 437.30 529.05 C 437.20 528.27, 437.41 527.27, 437.27 526.81 C 437.12 526.35, 436.82 526.26, 436.58 526.74 C 436.34 527.21, 436.00 528.27, 436.07 529.18 C 436.15 530.09, 436.45 530.60, 436.95 531.28 C 437.46 531.96, 437.83 532.26, 438.60 532.60 C 439.37 532.93, 439.85 533.02, 440.82 532.98 C 441.80 532.93, 442.37 532.82, 443.47 532.37 C 444.58 531.92, 445.17 531.59, 446.35 530.71 C 447.53 529.84, 448.16 529.29, 449.37 528.00 C 450.58 526.70, 451.21 525.92, 452.41 524.25 C 453.61 522.57, 454.21 521.61, 455.36 519.61 C 456.51 517.60, 457.08 516.50, 458.16 514.23 C 459.25 511.96, 459.75 510.72, 460.76 508.28 C 461.77 505.84, 462.26 504.54, 463.20 502.03 C 464.15 499.52, 464.62 498.20, 465.51 495.71 C 466.40 493.23, 466.81 491.93, 467.65 489.61 C 468.50 487.29, 468.93 486.12, 469.73 484.12 C 470.53 482.13, 470.98 481.17, 471.66 479.62 C 472.35 478.07, 472.70 477.39, 473.14 476.38 C 473.58 475.37, 473.75 474.99, 473.86 474.56 C 473.98 474.12, 473.97 474.06, 473.71 474.21 C 473.45 474.37, 473.25 474.65, 472.58 475.33 C 471.91 476.01, 471.49 476.58, 470.37 477.62 C 469.25 478.66, 468.50 479.34, 466.97 480.51 C 465.45 481.68, 464.49 482.36, 462.73 483.47 C 460.97 484.58, 459.99 485.17, 458.17 486.07 C 456.35 486.97, 455.38 487.40, 453.64 487.98 C 451.90 488.56, 451.01 488.78, 449.48 488.98 C 447.94 489.18, 447.22 489.18, 445.97 488.98 C 444.73 488.77, 444.16 488.55, 443.25 487.95 C 442.33 487.34, 441.96 486.90, 441.39 485.94 C 440.82 484.98, 440.66 484.34, 440.40 483.14 C 440.15 481.94, 440.13 481.16, 440.12 479.92 C 440.10 478.68, 440.24 477.97, 440.34 476.94 C 440.44 475.91, 440.57 475.44, 440.64 474.77 C 440.71 474.11, 440.77 473.88, 440.70 473.62 C 440.62 473.36, 440.49 473.30, 440.27 473.48" fill="none" stroke="currentColor" stroke-width="2" stroke-linecap="round" />
  <path class="path-anim-6" d="M 586.28,447.76 C 586.06 447.54, 585.74 447.29, 585.02 447.11 C 584.30 446.93, 583.85 446.82, 582.70 446.87 C 581.54 446.93, 580.82 446.93, 579.25 447.38 C 577.68 447.83, 576.82 448.20, 574.84 449.13 C 572.86 450.06, 571.73 450.62, 569.35 452.04 C 566.97 453.45, 565.60 454.32, 562.94 456.21 C 560.27 458.09, 558.75 459.24, 556.04 461.47 C 553.32 463.70, 551.85 464.99, 549.36 467.36 C 546.87 469.73, 545.59 470.99, 543.58 473.32 C 541.58 475.65, 540.66 476.86, 539.34 479.02 C 538.02 481.18, 537.52 482.24, 537.00 484.13 C 536.48 486.01, 536.42 486.90, 536.72 488.46 C 537.03 490.02, 537.42 490.75, 538.53 491.93 C 539.65 493.12, 540.45 493.62, 542.30 494.37 C 544.15 495.13, 545.35 495.38, 547.77 495.69 C 550.20 496.00, 551.63 496.03, 554.42 495.92 C 557.20 495.82, 558.78 495.60, 561.70 495.14 C 564.63 494.69, 566.19 494.38, 569.05 493.67 C 571.91 492.97, 573.54 492.43, 575.99 491.62 C 578.45 490.81, 579.60 490.35, 581.33 489.63 C 583.05 488.90, 583.98 488.40, 584.61 488.00 C 585.23 487.60, 585.18 487.48, 584.45 487.63 C 583.73 487.78, 582.77 488.19, 581.00 488.75 C 579.24 489.31, 578.07 489.70, 575.62 490.44 C 573.17 491.19, 571.57 491.78, 568.76 492.47 C 565.94 493.17, 564.40 493.49, 561.52 493.92 C 558.64 494.34, 557.09 494.50, 554.37 494.59 C 551.65 494.68, 550.26 494.65, 547.93 494.38 C 545.60 494.11, 544.47 493.88, 542.73 493.25 C 540.99 492.62, 540.27 492.23, 539.25 491.23 C 538.22 490.24, 537.88 489.65, 537.62 488.29 C 537.36 486.92, 537.42 486.14, 537.96 484.40 C 538.49 482.67, 538.99 481.67, 540.28 479.60 C 541.58 477.52, 542.46 476.33, 544.42 474.03 C 546.38 471.74, 547.62 470.46, 550.08 468.11 C 552.53 465.76, 554.00 464.49, 556.71 462.30 C 559.42 460.11, 560.94 458.99, 563.61 457.17 C 566.27 455.35, 567.67 454.57, 570.04 453.21 C 572.40 451.85, 573.50 451.26, 575.42 450.35 C 577.34 449.45, 578.15 449.11, 579.63 448.68 C 581.10 448.24, 581.74 448.27, 582.79 448.16 C 583.84 448.05, 584.21 448.11, 584.88 448.13 C 585.55 448.14, 585.86 448.30, 586.14 448.23 C 586.42 448.16, 586.51 447.98, 586.28 447.76" fill="none" stroke="currentColor" stroke-width="2" stroke-linecap="round" />
  <path class="path-anim-7" d="M 614.29,446.80 C 614.03 447.09, 613.89 447.44, 613.41 448.41 C 612.92 449.37, 612.61 449.98, 611.85 451.63 C 611.09 453.27, 610.64 454.41, 609.62 456.61 C 608.59 458.81, 607.97 460.14, 606.73 462.63 C 605.49 465.12, 604.77 466.51, 603.42 469.06 C 602.07 471.60, 601.28 472.94, 599.98 475.35 C 598.69 477.75, 598.01 479.00, 596.94 481.09 C 595.88 483.18, 595.36 484.18, 594.65 485.79 C 593.94 487.39, 593.63 488.12, 593.41 489.11 C 593.20 490.11, 593.24 490.48, 593.55 490.77 C 593.86 491.05, 594.19 491.00, 594.97 490.53 C 595.74 490.06, 596.22 489.57, 597.42 488.43 C 598.62 487.29, 599.35 486.42, 600.96 484.83 C 602.57 483.25, 603.54 482.22, 605.46 480.51 C 607.39 478.80, 608.51 477.82, 610.59 476.28 C 612.66 474.74, 613.84 473.95, 615.83 472.80 C 617.82 471.64, 618.86 471.14, 620.54 470.50 C 622.22 469.86, 623.00 469.66, 624.23 469.58 C 625.47 469.49, 625.98 469.62, 626.69 470.09 C 627.41 470.56, 627.62 470.95, 627.83 471.93 C 628.04 472.91, 627.97 473.59, 627.75 475.01 C 627.52 476.42, 627.24 477.34, 626.72 479.01 C 626.20 480.69, 625.80 481.68, 625.15 483.38 C 624.50 485.07, 624.04 485.98, 623.47 487.48 C 622.90 488.98, 622.63 489.78, 622.30 490.88 C 621.97 491.99, 621.90 492.36, 621.81 493.01 C 621.72 493.66, 621.78 493.90, 621.85 494.13 C 621.91 494.36, 622.00 494.36, 622.13 494.17 C 622.25 493.98, 622.23 493.77, 622.47 493.19 C 622.71 492.60, 622.88 492.29, 623.32 491.24 C 623.75 490.20, 624.02 489.42, 624.64 487.95 C 625.26 486.47, 625.72 485.58, 626.41 483.87 C 627.09 482.17, 627.54 481.16, 628.06 479.42 C 628.58 477.68, 628.88 476.71, 629.02 475.16 C 629.16 473.61, 629.16 472.82, 628.78 471.67 C 628.41 470.52, 628.06 470.01, 627.15 469.40 C 626.23 468.80, 625.60 468.62, 624.20 468.63 C 622.80 468.64, 621.96 468.84, 620.16 469.46 C 618.37 470.08, 617.30 470.58, 615.23 471.73 C 613.16 472.88, 611.95 473.67, 609.81 475.22 C 607.67 476.76, 606.52 477.74, 604.53 479.45 C 602.55 481.15, 601.52 482.15, 599.89 483.75 C 598.26 485.34, 597.49 486.20, 596.39 487.42 C 595.29 488.64, 594.92 489.21, 594.39 489.85 C 593.86 490.48, 593.79 490.68, 593.75 490.59 C 593.71 490.49, 593.82 490.23, 594.20 489.37 C 594.58 488.50, 594.89 487.80, 595.64 486.25 C 596.40 484.70, 596.91 483.70, 598.00 481.63 C 599.08 479.57, 599.77 478.34, 601.08 475.94 C 602.39 473.55, 603.16 472.19, 604.54 469.66 C 605.92 467.12, 606.69 465.74, 607.97 463.26 C 609.25 460.77, 609.92 459.45, 610.95 457.23 C 611.98 455.02, 612.46 453.87, 613.14 452.18 C 613.82 450.49, 614.04 449.83, 614.36 448.79 C 614.67 447.74, 614.73 447.35, 614.72 446.95 C 614.71 446.56, 614.55 446.51, 614.29 446.80" fill="none" stroke="currentColor" stroke-width="2" stroke-linecap="round" />
  <path class="path-anim-8" d="M 651.45,474.45 C 651.20 474.70, 651.05 475.04, 650.62 475.85 C 650.18 476.66, 649.92 477.22, 649.27 478.49 C 648.63 479.77, 648.19 480.69, 647.40 482.23 C 646.61 483.78, 646.12 484.73, 645.32 486.23 C 644.52 487.74, 644.03 488.57, 643.39 489.75 C 642.74 490.93, 642.42 491.47, 642.11 492.14 C 641.79 492.81, 641.74 493.06, 641.82 493.09 C 641.90 493.13, 642.09 492.97, 642.50 492.32 C 642.90 491.67, 643.18 491.06, 643.85 489.83 C 644.52 488.59, 644.87 487.71, 645.84 486.13 C 646.81 484.56, 647.40 483.60, 648.71 481.96 C 650.02 480.32, 650.82 479.42, 652.38 477.93 C 653.94 476.43, 654.85 475.69, 656.50 474.49 C 658.15 473.29, 659.05 472.75, 660.64 471.92 C 662.23 471.09, 663.02 470.78, 664.45 470.35 C 665.88 469.93, 666.54 469.86, 667.78 469.80 C 669.02 469.73, 669.61 469.88, 670.63 470.03 C 671.65 470.18, 672.13 470.37, 672.88 470.55 C 673.62 470.73, 674.02 470.92, 674.34 470.93 C 674.67 470.93, 674.74 470.81, 674.50 470.56 C 674.27 470.31, 673.90 470.02, 673.17 469.69 C 672.43 469.37, 671.90 469.14, 670.81 468.95 C 669.72 468.75, 669.06 468.66, 667.72 468.73 C 666.39 468.80, 665.67 468.87, 664.14 469.30 C 662.62 469.73, 661.78 470.05, 660.11 470.88 C 658.44 471.72, 657.51 472.27, 655.78 473.49 C 654.06 474.71, 653.12 475.46, 651.49 476.98 C 649.86 478.51, 649.03 479.42, 647.64 481.09 C 646.26 482.77, 645.60 483.73, 644.57 485.34 C 643.54 486.95, 643.11 487.84, 642.51 489.16 C 641.91 490.49, 641.73 491.16, 641.58 491.97 C 641.43 492.78, 641.51 493.07, 641.76 493.20 C 642.00 493.33, 642.26 493.18, 642.80 492.62 C 643.34 492.05, 643.69 491.52, 644.44 490.38 C 645.19 489.24, 645.68 488.40, 646.54 486.91 C 647.40 485.42, 647.93 484.48, 648.74 482.92 C 649.55 481.36, 650.01 480.44, 650.58 479.10 C 651.15 477.77, 651.34 477.15, 651.60 476.26 C 651.86 475.36, 651.92 474.97, 651.89 474.61 C 651.86 474.25, 651.71 474.20, 651.45 474.45" fill="none" stroke="currentColor" stroke-width="2" stroke-linecap="round" />
  <path class="path-anim-9" d="M 695.00,470.60 C 694.70 470.80, 694.51 471.05, 693.90 471.83 C 693.30 472.61, 692.86 473.18, 691.99 474.50 C 691.11 475.83, 690.51 476.79, 689.52 478.46 C 688.52 480.12, 687.95 481.13, 687.01 482.83 C 686.08 484.52, 685.55 485.45, 684.83 486.93 C 684.11 488.40, 683.82 489.15, 683.43 490.21 C 683.03 491.27, 682.96 491.64, 682.85 492.23 C 682.74 492.82, 682.84 492.95, 682.89 493.16 C 682.95 493.36, 683.07 493.24, 683.12 493.24 C 683.17 493.25, 683.13 493.21, 683.15 493.20 C 683.17 493.19, 683.13 493.34, 683.22 493.19 C 683.31 493.04, 683.36 492.97, 683.59 492.46 C 683.83 491.95, 683.92 491.61, 684.39 490.62 C 684.85 489.62, 685.16 488.91, 685.93 487.49 C 686.69 486.06, 687.23 485.16, 688.20 483.51 C 689.18 481.86, 689.81 480.89, 690.81 479.24 C 691.82 477.59, 692.44 476.65, 693.24 475.28 C 694.03 473.91, 694.37 473.27, 694.80 472.38 C 695.23 471.49, 695.34 471.19, 695.38 470.83 C 695.42 470.47, 695.29 470.40, 695.00 470.60" fill="none" stroke="currentColor" stroke-width="2" stroke-linecap="round" />
  <path class="path-anim-10" d="M 703.86,450.61 C 704.02 450.63, 704.03 450.54, 704.03 450.58 C 704.04 450.61, 703.88 450.78, 703.89 450.79 C 703.90 450.80, 704.03 450.82, 704.10 450.63 C 704.16 450.44, 704.30 450.05, 704.22 449.84 C 704.14 449.62, 703.90 449.52, 703.70 449.57 C 703.50 449.61, 703.29 449.88, 703.20 450.06 C 703.12 450.24, 703.14 450.37, 703.27 450.48 C 703.40 450.59, 703.71 450.59, 703.86 450.61" fill="none" stroke="currentColor" stroke-width="2" stroke-linecap="round" />
  <path class="path-anim-11" d="M 733.94,466.07 C 733.56 465.89, 733.08 465.75, 732.03 465.69 C 730.99 465.63, 730.28 465.58, 728.70 465.76 C 727.11 465.94, 725.99 466.09, 724.10 466.61 C 722.21 467.12, 721.11 467.56, 719.23 468.33 C 717.36 469.10, 716.31 469.55, 714.73 470.45 C 713.15 471.34, 712.35 471.82, 711.34 472.79 C 710.33 473.76, 709.95 474.30, 709.68 475.29 C 709.41 476.28, 709.49 476.79, 709.99 477.75 C 710.49 478.70, 711.01 479.19, 712.19 480.05 C 713.37 480.92, 714.24 481.32, 715.90 482.08 C 717.56 482.84, 718.65 483.17, 720.49 483.86 C 722.34 484.55, 723.42 484.86, 725.11 485.52 C 726.81 486.18, 727.70 486.51, 728.97 487.14 C 730.23 487.78, 730.80 488.10, 731.44 488.68 C 732.07 489.27, 732.22 489.52, 732.15 490.09 C 732.07 490.65, 731.83 490.92, 731.05 491.51 C 730.28 492.09, 729.66 492.41, 728.27 493.01 C 726.89 493.62, 725.95 493.97, 724.15 494.55 C 722.36 495.12, 721.26 495.43, 719.30 495.89 C 717.34 496.34, 716.22 496.54, 714.36 496.80 C 712.50 497.07, 711.52 497.17, 710.00 497.21 C 708.48 497.25, 707.82 497.16, 706.78 497.00 C 705.73 496.85, 705.37 496.67, 704.77 496.45 C 704.18 496.23, 704.05 495.96, 703.82 495.90 C 703.59 495.84, 703.50 495.90, 703.62 496.14 C 703.75 496.38, 703.86 496.71, 704.46 497.08 C 705.05 497.46, 705.48 497.74, 706.59 498.00 C 707.70 498.26, 708.42 498.35, 710.01 498.37 C 711.60 498.38, 712.61 498.30, 714.53 498.07 C 716.44 497.84, 717.59 497.65, 719.60 497.21 C 721.61 496.78, 722.74 496.50, 724.59 495.91 C 726.44 495.32, 727.43 494.99, 728.87 494.27 C 730.30 493.54, 730.96 493.12, 731.77 492.30 C 732.57 491.48, 732.81 491.00, 732.87 490.16 C 732.93 489.32, 732.75 488.88, 732.08 488.08 C 731.41 487.27, 730.81 486.88, 729.51 486.13 C 728.22 485.38, 727.31 485.03, 725.60 484.32 C 723.90 483.60, 722.81 483.26, 720.99 482.56 C 719.17 481.85, 718.10 481.49, 716.48 480.78 C 714.86 480.08, 714.03 479.72, 712.89 479.01 C 711.75 478.31, 711.26 477.98, 710.77 477.28 C 710.28 476.58, 710.20 476.27, 710.46 475.52 C 710.71 474.78, 711.07 474.37, 712.04 473.58 C 713.01 472.78, 713.79 472.34, 715.33 471.55 C 716.87 470.75, 717.91 470.31, 719.74 469.60 C 721.57 468.90, 722.65 468.51, 724.48 468.03 C 726.31 467.54, 727.38 467.41, 728.89 467.16 C 730.41 466.90, 731.06 466.88, 732.07 466.76 C 733.07 466.63, 733.55 466.69, 733.92 466.55 C 734.30 466.41, 734.32 466.24, 733.94 466.07" fill="none" stroke="currentColor" stroke-width="2" stroke-linecap="round" />
  <path class="path-anim-12" d="M 767.98,448.63 C 767.67 448.89, 767.47 449.21, 766.83 450.14 C 766.19 451.07, 765.78 451.67, 764.77 453.27 C 763.76 454.88, 763.10 455.98, 761.79 458.16 C 760.48 460.34, 759.71 461.67, 758.22 464.17 C 756.74 466.67, 755.89 468.09, 754.37 470.64 C 752.86 473.20, 752.02 474.54, 750.66 476.96 C 749.30 479.38, 748.65 480.61, 747.56 482.75 C 746.48 484.89, 745.99 485.91, 745.23 487.68 C 744.47 489.45, 744.18 490.25, 743.75 491.59 C 743.32 492.93, 743.25 493.53, 743.09 494.40 C 742.93 495.26, 742.94 495.50, 742.96 495.93 C 742.98 496.37, 743.09 496.44, 743.18 496.56 C 743.27 496.68, 743.37 496.56, 743.41 496.55 C 743.45 496.53, 743.39 496.48, 743.39 496.47 C 743.40 496.46, 743.39 496.60, 743.44 496.51 C 743.49 496.41, 743.53 496.39, 743.63 496.01 C 743.74 495.62, 743.75 495.41, 743.97 494.59 C 744.19 493.77, 744.27 493.21, 744.72 491.91 C 745.17 490.62, 745.45 489.85, 746.23 488.12 C 747.00 486.40, 747.50 485.39, 748.60 483.28 C 749.70 481.17, 750.36 479.97, 751.73 477.57 C 753.10 475.17, 753.90 473.82, 755.43 471.28 C 756.96 468.74, 757.85 467.34, 759.37 464.87 C 760.90 462.39, 761.74 461.09, 763.06 458.92 C 764.38 456.75, 765.05 455.65, 765.98 453.99 C 766.91 452.34, 767.24 451.68, 767.72 450.65 C 768.20 449.62, 768.32 449.25, 768.38 448.85 C 768.43 448.45, 768.29 448.37, 767.98 448.63" fill="none" stroke="currentColor" stroke-width="2" stroke-linecap="round" />
  <path class="path-anim-13" d="M 742.54,475.84 C 742.94 475.88, 743.35 475.79, 744.40 475.61 C 745.46 475.43, 746.20 475.25, 747.83 474.94 C 749.45 474.63, 750.51 474.39, 752.53 474.05 C 754.54 473.71, 755.73 473.55, 757.90 473.25 C 760.07 472.96, 761.38 472.82, 763.37 472.58 C 765.36 472.33, 766.37 472.22, 767.84 472.03 C 769.30 471.83, 770.13 471.76, 770.70 471.60 C 771.26 471.43, 771.26 471.30, 770.67 471.20 C 770.09 471.09, 769.26 471.05, 767.77 471.06 C 766.28 471.08, 765.25 471.12, 763.24 471.28 C 761.23 471.45, 759.91 471.61, 757.72 471.88 C 755.53 472.14, 754.33 472.28, 752.29 472.62 C 750.25 472.95, 749.16 473.16, 747.53 473.55 C 745.89 473.94, 745.15 474.20, 744.13 474.57 C 743.11 474.94, 742.73 475.14, 742.41 475.40 C 742.09 475.65, 742.15 475.80, 742.54 475.84" fill="none" stroke="currentColor" stroke-width="2" stroke-linecap="round" />
  <path class="path-anim-14" d="M 787.58,470.39 C 787.29 470.65, 787.11 471.02, 786.55 471.91 C 785.99 472.80, 785.62 473.43, 784.77 474.84 C 783.92 476.26, 783.35 477.24, 782.29 478.98 C 781.24 480.72, 780.59 481.78, 779.49 483.54 C 778.39 485.30, 777.73 486.26, 776.80 487.79 C 775.87 489.33, 775.38 490.11, 774.85 491.21 C 774.33 492.31, 774.17 492.80, 774.17 493.31 C 774.17 493.83, 774.34 493.97, 774.84 493.77 C 775.34 493.56, 775.73 493.24, 776.67 492.29 C 777.62 491.34, 778.20 490.56, 779.57 489.03 C 780.94 487.50, 781.79 486.46, 783.53 484.64 C 785.28 482.81, 786.34 481.72, 788.30 479.90 C 790.26 478.08, 791.40 477.09, 793.35 475.56 C 795.30 474.02, 796.36 473.28, 798.05 472.22 C 799.75 471.16, 800.57 470.74, 801.81 470.26 C 803.04 469.77, 803.54 469.68, 804.24 469.82 C 804.93 469.95, 805.11 470.19, 805.29 470.93 C 805.47 471.67, 805.38 472.26, 805.15 473.51 C 804.92 474.77, 804.67 475.63, 804.15 477.20 C 803.64 478.77, 803.25 479.74, 802.58 481.35 C 801.91 482.96, 801.44 483.85, 800.80 485.24 C 800.16 486.62, 799.74 487.30, 799.40 488.27 C 799.05 489.25, 798.92 489.71, 799.06 490.12 C 799.20 490.52, 799.42 490.62, 800.08 490.31 C 800.75 489.99, 801.20 489.56, 802.37 488.53 C 803.53 487.50, 804.25 486.68, 805.91 485.14 C 807.58 483.61, 808.61 482.55, 810.68 480.85 C 812.74 479.16, 813.99 478.17, 816.22 476.66 C 818.45 475.15, 819.71 474.40, 821.84 473.30 C 823.98 472.21, 825.12 471.75, 826.90 471.19 C 828.68 470.62, 829.52 470.49, 830.74 470.48 C 831.97 470.47, 832.42 470.60, 833.04 471.13 C 833.67 471.65, 833.79 472.07, 833.86 473.10 C 833.94 474.12, 833.79 474.83, 833.40 476.25 C 833.02 477.67, 832.65 478.57, 831.96 480.22 C 831.27 481.86, 830.76 482.83, 829.97 484.47 C 829.17 486.11, 828.65 486.99, 828.00 488.42 C 827.36 489.85, 827.08 490.57, 826.75 491.60 C 826.41 492.64, 826.39 493.00, 826.33 493.59 C 826.27 494.18, 826.38 494.35, 826.46 494.55 C 826.53 494.74, 826.62 494.72, 826.71 494.56 C 826.81 494.40, 826.75 494.25, 826.95 493.74 C 827.15 493.22, 827.29 492.93, 827.72 491.98 C 828.15 491.02, 828.43 490.34, 829.12 488.95 C 829.82 487.57, 830.36 486.71, 831.18 485.07 C 832.01 483.43, 832.56 482.46, 833.26 480.76 C 833.96 479.05, 834.36 478.11, 834.68 476.55 C 835.00 474.99, 835.08 474.17, 834.85 472.97 C 834.63 471.76, 834.36 471.21, 833.54 470.53 C 832.72 469.85, 832.16 469.64, 830.77 469.56 C 829.38 469.48, 828.48 469.59, 826.58 470.12 C 824.69 470.65, 823.51 471.12, 821.29 472.20 C 819.07 473.29, 817.79 474.04, 815.48 475.55 C 813.17 477.05, 811.89 478.03, 809.76 479.72 C 807.64 481.41, 806.53 482.43, 804.85 484.00 C 803.17 485.56, 802.43 486.38, 801.38 487.53 C 800.34 488.67, 800.01 489.20, 799.62 489.72 C 799.22 490.24, 799.27 490.32, 799.41 490.12 C 799.56 489.92, 799.84 489.58, 800.35 488.72 C 800.86 487.85, 801.25 487.17, 801.96 485.80 C 802.66 484.44, 803.16 483.53, 803.87 481.90 C 804.59 480.27, 805.03 479.29, 805.53 477.64 C 806.04 476.00, 806.30 475.07, 806.41 473.67 C 806.52 472.28, 806.48 471.56, 806.08 470.65 C 805.68 469.74, 805.33 469.39, 804.41 469.13 C 803.49 468.87, 802.88 468.92, 801.49 469.34 C 800.10 469.76, 799.24 470.19, 797.46 471.23 C 795.67 472.27, 794.58 473.02, 792.57 474.55 C 790.56 476.08, 789.40 477.08, 787.38 478.89 C 785.36 480.70, 784.28 481.80, 782.48 483.61 C 780.69 485.43, 779.76 486.42, 778.39 487.98 C 777.03 489.55, 776.44 490.35, 775.66 491.43 C 774.88 492.50, 774.70 492.95, 774.49 493.36 C 774.28 493.77, 774.37 493.78, 774.63 493.46 C 774.89 493.14, 775.15 492.74, 775.80 491.74 C 776.44 490.74, 776.89 489.95, 777.87 488.46 C 778.84 486.97, 779.52 486.02, 780.66 484.28 C 781.80 482.54, 782.49 481.51, 783.57 479.76 C 784.64 478.01, 785.24 477.03, 786.02 475.55 C 786.81 474.08, 787.10 473.38, 787.50 472.39 C 787.89 471.40, 787.99 470.98, 788.00 470.58 C 788.02 470.18, 787.87 470.12, 787.58 470.39" fill="none" stroke="currentColor" stroke-width="2" stroke-linecap="round" />
  <path class="path-anim-15" d="M 869.38,473.18 C 869.23 472.92, 868.97 472.65, 868.40 472.33 C 867.83 472.02, 867.47 471.77, 866.54 471.60 C 865.61 471.44, 864.99 471.34, 863.75 471.52 C 862.51 471.69, 861.83 471.90, 860.35 472.49 C 858.86 473.08, 857.99 473.49, 856.34 474.46 C 854.69 475.44, 853.72 476.08, 852.09 477.36 C 850.47 478.64, 849.58 479.45, 848.22 480.88 C 846.86 482.31, 846.17 483.12, 845.29 484.51 C 844.41 485.90, 844.06 486.62, 843.82 487.82 C 843.57 489.02, 843.65 489.61, 844.07 490.51 C 844.49 491.41, 844.90 491.83, 845.93 492.32 C 846.95 492.81, 847.69 492.96, 849.20 492.97 C 850.70 492.98, 851.62 492.83, 853.44 492.35 C 855.26 491.88, 856.28 491.50, 858.30 490.59 C 860.31 489.69, 861.48 489.08, 863.51 487.82 C 865.53 486.57, 866.60 485.76, 868.41 484.31 C 870.22 482.86, 871.12 481.98, 872.55 480.57 C 873.98 479.16, 874.70 478.40, 875.56 477.24 C 876.41 476.08, 876.71 475.38, 876.83 474.77 C 876.95 474.17, 876.71 474.00, 876.16 474.22 C 875.60 474.45, 875.00 474.89, 874.04 475.89 C 873.07 476.89, 872.39 477.72, 871.33 479.22 C 870.27 480.73, 869.64 481.78, 868.74 483.43 C 867.84 485.09, 867.37 486.01, 866.84 487.48 C 866.31 488.95, 866.13 489.64, 866.09 490.80 C 866.06 491.96, 866.29 492.46, 866.67 493.26 C 867.05 494.07, 867.45 494.39, 867.98 494.83 C 868.52 495.26, 868.87 495.34, 869.36 495.45 C 869.84 495.55, 870.20 495.46, 870.42 495.36 C 870.65 495.26, 870.63 495.08, 870.47 494.94 C 870.31 494.79, 869.99 494.81, 869.62 494.64 C 869.24 494.47, 869.02 494.43, 868.60 494.08 C 868.18 493.73, 867.81 493.51, 867.51 492.87 C 867.20 492.23, 866.97 491.85, 867.06 490.86 C 867.15 489.87, 867.37 489.26, 867.95 487.92 C 868.54 486.58, 869.04 485.70, 869.99 484.15 C 870.93 482.60, 871.67 481.65, 872.70 480.18 C 873.72 478.70, 874.35 477.88, 875.11 476.77 C 875.87 475.67, 876.26 475.09, 876.51 474.65 C 876.76 474.20, 876.72 474.16, 876.35 474.54 C 875.99 474.91, 875.62 475.50, 874.69 476.53 C 873.76 477.57, 873.11 478.34, 871.70 479.69 C 870.28 481.05, 869.39 481.90, 867.61 483.30 C 865.83 484.70, 864.78 485.48, 862.81 486.69 C 860.83 487.90, 859.69 488.48, 857.74 489.36 C 855.80 490.23, 854.81 490.58, 853.09 491.05 C 851.38 491.52, 850.52 491.64, 849.17 491.70 C 847.81 491.77, 847.19 491.70, 846.32 491.40 C 845.45 491.09, 845.14 490.83, 844.82 490.16 C 844.50 489.49, 844.46 489.04, 844.74 488.04 C 845.03 487.04, 845.37 486.41, 846.25 485.15 C 847.13 483.90, 847.81 483.12, 849.15 481.78 C 850.48 480.43, 851.35 479.66, 852.93 478.43 C 854.51 477.21, 855.46 476.59, 857.04 475.65 C 858.63 474.71, 859.47 474.30, 860.85 473.74 C 862.23 473.17, 862.85 473.00, 863.95 472.83 C 865.05 472.65, 865.54 472.78, 866.34 472.88 C 867.15 472.98, 867.43 473.17, 867.99 473.32 C 868.55 473.47, 868.86 473.65, 869.14 473.63 C 869.41 473.60, 869.53 473.44, 869.38 473.18" fill="none" stroke="currentColor" stroke-width="2" stroke-linecap="round" />
  <path class="path-anim-16" d="M 917.75,470.92 C 917.65 470.63, 917.50 470.24, 916.92 469.83 C 916.35 469.42, 915.96 469.13, 914.88 468.87 C 913.81 468.60, 913.08 468.44, 911.56 468.51 C 910.05 468.59, 909.11 468.79, 907.33 469.23 C 905.54 469.68, 904.45 470.03, 902.62 470.75 C 900.79 471.47, 899.73 471.93, 898.18 472.84 C 896.63 473.75, 895.86 474.29, 894.87 475.30 C 893.88 476.31, 893.49 476.86, 893.21 477.89 C 892.93 478.91, 893.00 479.44, 893.48 480.42 C 893.96 481.39, 894.47 481.89, 895.59 482.75 C 896.71 483.62, 897.54 484.02, 899.08 484.74 C 900.62 485.47, 901.62 485.77, 903.27 486.40 C 904.93 487.02, 905.88 487.31, 907.35 487.87 C 908.82 488.42, 909.60 488.69, 910.64 489.17 C 911.68 489.65, 912.13 489.86, 912.56 490.25 C 912.99 490.64, 913.05 490.79, 912.81 491.14 C 912.57 491.48, 912.25 491.62, 911.37 492.00 C 910.48 492.38, 909.80 492.60, 908.39 493.03 C 906.98 493.46, 906.03 493.73, 904.30 494.16 C 902.56 494.58, 901.54 494.82, 899.72 495.16 C 897.90 495.51, 896.87 495.65, 895.20 495.88 C 893.53 496.10, 892.66 496.18, 891.36 496.29 C 890.05 496.39, 889.48 496.38, 888.67 496.42 C 887.85 496.46, 887.65 496.44, 887.29 496.48 C 886.94 496.51, 886.94 496.56, 886.89 496.58 C 886.85 496.60, 887.05 496.61, 887.06 496.58 C 887.07 496.55, 887.00 496.40, 886.94 496.43 C 886.88 496.45, 886.70 496.57, 886.75 496.70 C 886.80 496.84, 886.82 496.98, 887.20 497.11 C 887.59 497.24, 887.81 497.30, 888.65 497.37 C 889.50 497.43, 890.09 497.48, 891.43 497.43 C 892.77 497.38, 893.64 497.32, 895.35 497.13 C 897.06 496.94, 898.10 496.81, 899.96 496.49 C 901.82 496.18, 902.86 495.97, 904.63 495.56 C 906.41 495.14, 907.39 494.93, 908.85 494.42 C 910.30 493.91, 911.01 493.63, 911.92 493.03 C 912.84 492.43, 913.17 492.08, 913.42 491.43 C 913.66 490.77, 913.59 490.41, 913.14 489.76 C 912.69 489.11, 912.21 488.80, 911.15 488.18 C 910.09 487.57, 909.30 487.29, 907.82 486.68 C 906.35 486.07, 905.40 485.76, 903.77 485.11 C 902.14 484.47, 901.17 484.14, 899.67 483.47 C 898.18 482.79, 897.39 482.44, 896.31 481.74 C 895.23 481.04, 894.74 480.69, 894.29 479.97 C 893.83 479.25, 893.75 478.91, 894.02 478.13 C 894.28 477.35, 894.65 476.92, 895.61 476.09 C 896.57 475.25, 897.30 474.76, 898.80 473.95 C 900.30 473.14, 901.35 472.71, 903.12 472.04 C 904.89 471.37, 905.96 471.03, 907.67 470.61 C 909.37 470.19, 910.26 470.01, 911.64 469.92 C 913.03 469.83, 913.66 469.99, 914.62 470.15 C 915.57 470.31, 915.86 470.49, 916.43 470.72 C 916.99 470.94, 917.16 471.24, 917.42 471.29 C 917.69 471.33, 917.85 471.21, 917.75 470.92" fill="none" stroke="currentColor" stroke-width="2" stroke-linecap="round" />
  <path class="path-anim-17" d="M 1009.98,449.67 C 1009.74 449.98, 1009.68 450.36, 1009.26 451.35 C 1008.84 452.33, 1008.58 452.93, 1007.86 454.58 C 1007.15 456.23, 1006.71 457.35, 1005.69 459.58 C 1004.67 461.81, 1004.04 463.13, 1002.76 465.72 C 1001.48 468.31, 1000.71 469.78, 999.29 472.52 C 997.88 475.26, 997.08 476.73, 995.69 479.42 C 994.30 482.10, 993.55 483.51, 992.35 485.95 C 991.15 488.40, 990.59 489.62, 989.69 491.64 C 988.79 493.66, 988.40 494.59, 987.85 496.05 C 987.30 497.50, 987.15 498.04, 986.93 498.91 C 986.72 499.77, 986.74 500.07, 986.76 500.38 C 986.77 500.69, 986.86 500.70, 987.03 500.45 C 987.20 500.20, 987.23 499.93, 987.58 499.13 C 987.94 498.33, 988.16 497.84, 988.79 496.44 C 989.42 495.03, 989.79 494.10, 990.72 492.11 C 991.65 490.12, 992.23 488.92, 993.43 486.49 C 994.64 484.06, 995.35 482.64, 996.73 479.95 C 998.11 477.27, 998.91 475.80, 1000.35 473.08 C 1001.80 470.35, 1002.63 468.90, 1003.96 466.33 C 1005.29 463.75, 1005.98 462.43, 1007.02 460.19 C 1008.05 457.94, 1008.51 456.81, 1009.15 455.10 C 1009.79 453.40, 1009.97 452.73, 1010.23 451.67 C 1010.48 450.60, 1010.47 450.18, 1010.42 449.78 C 1010.37 449.38, 1010.21 449.35, 1009.98 449.67" fill="none" stroke="currentColor" stroke-width="2" stroke-linecap="round" />
  <path class="path-anim-18" d="M 1012.04,448.72 C 1012.33 448.31, 1012.65 447.34, 1012.84 446.57 C 1013.03 445.81, 1012.98 445.22, 1012.99 444.90 C 1013.00 444.58, 1012.97 444.39, 1012.88 444.97 C 1012.79 445.54, 1012.70 446.31, 1012.53 447.78 C 1012.36 449.25, 1012.25 450.38, 1012.04 452.32 C 1011.83 454.27, 1011.68 455.45, 1011.50 457.52 C 1011.31 459.58, 1011.16 460.72, 1011.11 462.65 C 1011.06 464.58, 1011.04 465.56, 1011.25 467.16 C 1011.47 468.77, 1011.60 469.52, 1012.20 470.66 C 1012.79 471.79, 1013.19 472.29, 1014.23 472.85 C 1015.26 473.41, 1015.89 473.56, 1017.38 473.44 C 1018.87 473.32, 1019.73 473.08, 1021.67 472.24 C 1023.61 471.40, 1024.75 470.78, 1027.07 469.24 C 1029.39 467.71, 1030.71 466.61, 1033.27 464.56 C 1035.82 462.51, 1037.29 461.21, 1039.86 458.98 C 1042.42 456.76, 1043.80 455.49, 1046.08 453.43 C 1048.35 451.38, 1049.51 450.30, 1051.23 448.70 C 1052.95 447.10, 1053.71 446.38, 1054.68 445.44 C 1055.64 444.50, 1055.94 444.07, 1056.06 444.01 C 1056.17 443.95, 1055.93 444.14, 1055.26 445.14 C 1054.59 446.15, 1053.97 447.01, 1052.70 449.04 C 1051.44 451.07, 1050.61 452.49, 1048.94 455.28 C 1047.27 458.08, 1046.21 459.87, 1044.35 463.00 C 1042.48 466.13, 1041.39 467.88, 1039.62 470.94 C 1037.85 474.01, 1036.88 475.58, 1035.48 478.32 C 1034.08 481.06, 1033.45 482.41, 1032.62 484.65 C 1031.80 486.89, 1031.53 487.89, 1031.36 489.54 C 1031.19 491.19, 1031.26 491.94, 1031.78 492.89 C 1032.30 493.85, 1032.99 494.03, 1033.96 494.34 C 1034.93 494.64, 1035.68 494.56, 1036.61 494.40 C 1037.55 494.24, 1038.25 493.80, 1038.62 493.52 C 1038.99 493.23, 1038.89 493.03, 1038.46 492.99 C 1038.03 492.95, 1037.32 493.23, 1036.46 493.32 C 1035.61 493.41, 1035.00 493.60, 1034.19 493.44 C 1033.38 493.29, 1032.81 493.31, 1032.43 492.55 C 1032.05 491.80, 1032.04 491.17, 1032.29 489.66 C 1032.53 488.16, 1032.81 487.20, 1033.64 485.03 C 1034.47 482.86, 1035.08 481.53, 1036.46 478.81 C 1037.83 476.10, 1038.75 474.51, 1040.51 471.46 C 1042.28 468.41, 1043.37 466.66, 1045.28 463.57 C 1047.19 460.47, 1048.34 458.73, 1050.07 455.98 C 1051.81 453.22, 1052.76 451.88, 1053.96 449.80 C 1055.16 447.71, 1055.65 446.74, 1056.08 445.55 C 1056.50 444.35, 1056.48 443.97, 1056.09 443.82 C 1055.70 443.67, 1055.25 443.97, 1054.12 444.77 C 1053.00 445.58, 1052.22 446.29, 1050.46 447.85 C 1048.69 449.41, 1047.57 450.52, 1045.30 452.58 C 1043.03 454.63, 1041.68 455.93, 1039.13 458.14 C 1036.57 460.35, 1035.09 461.63, 1032.52 463.61 C 1029.96 465.60, 1028.58 466.59, 1026.30 468.08 C 1024.02 469.56, 1022.94 470.19, 1021.13 471.05 C 1019.32 471.90, 1018.55 472.16, 1017.25 472.36 C 1015.95 472.56, 1015.48 472.48, 1014.64 472.06 C 1013.80 471.63, 1013.52 471.24, 1013.06 470.23 C 1012.61 469.23, 1012.51 468.54, 1012.37 467.04 C 1012.23 465.53, 1012.26 464.58, 1012.36 462.70 C 1012.47 460.83, 1012.62 459.70, 1012.88 457.66 C 1013.13 455.62, 1013.40 454.46, 1013.63 452.50 C 1013.87 450.54, 1014.03 449.40, 1014.03 447.86 C 1014.03 446.33, 1013.95 445.50, 1013.65 444.84 C 1013.35 444.18, 1012.97 444.28, 1012.53 444.56 C 1012.10 444.83, 1011.70 445.40, 1011.47 446.21 C 1011.25 447.02, 1011.29 448.09, 1011.40 448.59 C 1011.52 449.09, 1011.76 449.12, 1012.04 448.72" fill="none" stroke="currentColor" stroke-width="2" stroke-linecap="round" />
  <path class="path-anim-19" d="M 1079.96,474.78 C 1079.81 474.49, 1079.56 474.12, 1078.93 473.71 C 1078.30 473.31, 1077.85 473.00, 1076.80 472.75 C 1075.74 472.50, 1075.07 472.34, 1073.65 472.48 C 1072.23 472.61, 1071.42 472.81, 1069.71 473.44 C 1068.00 474.06, 1066.98 474.51, 1065.10 475.58 C 1063.23 476.65, 1062.13 477.37, 1060.32 478.78 C 1058.51 480.19, 1057.53 481.06, 1056.04 482.62 C 1054.56 484.18, 1053.82 485.08, 1052.89 486.58 C 1051.97 488.08, 1051.64 488.86, 1051.42 490.13 C 1051.19 491.40, 1051.27 492.02, 1051.76 492.93 C 1052.25 493.85, 1052.73 494.25, 1053.85 494.71 C 1054.97 495.16, 1055.75 495.27, 1057.36 495.20 C 1058.97 495.12, 1059.94 494.94, 1061.90 494.31 C 1063.86 493.69, 1065.03 493.18, 1067.16 492.07 C 1069.29 490.97, 1070.46 490.23, 1072.54 488.79 C 1074.61 487.35, 1075.71 486.45, 1077.54 484.86 C 1079.36 483.28, 1080.31 482.31, 1081.66 480.86 C 1083.01 479.41, 1083.62 478.65, 1084.30 477.60 C 1084.97 476.56, 1085.12 475.98, 1085.03 475.62 C 1084.93 475.27, 1084.54 475.28, 1083.83 475.81 C 1083.12 476.33, 1082.48 476.97, 1081.49 478.24 C 1080.50 479.52, 1079.87 480.49, 1078.87 482.19 C 1077.88 483.88, 1077.32 484.98, 1076.52 486.71 C 1075.73 488.45, 1075.33 489.36, 1074.90 490.85 C 1074.46 492.34, 1074.32 493.03, 1074.35 494.17 C 1074.37 495.30, 1074.51 495.79, 1075.03 496.52 C 1075.55 497.25, 1075.98 497.54, 1076.94 497.80 C 1077.90 498.06, 1078.69 497.99, 1079.83 497.81 C 1080.97 497.63, 1081.69 497.35, 1082.65 496.90 C 1083.60 496.46, 1084.25 495.94, 1084.59 495.58 C 1084.93 495.23, 1084.84 495.08, 1084.37 495.11 C 1083.89 495.14, 1083.16 495.45, 1082.21 495.72 C 1081.25 495.99, 1080.60 496.24, 1079.58 496.45 C 1078.57 496.67, 1077.91 496.86, 1077.13 496.78 C 1076.35 496.70, 1076.05 496.58, 1075.68 496.06 C 1075.31 495.54, 1075.22 495.15, 1075.29 494.18 C 1075.35 493.21, 1075.51 492.58, 1076.00 491.21 C 1076.50 489.84, 1076.91 488.96, 1077.75 487.31 C 1078.60 485.67, 1079.25 484.65, 1080.25 483.00 C 1081.24 481.36, 1081.88 480.43, 1082.72 479.11 C 1083.56 477.78, 1084.03 477.08, 1084.44 476.37 C 1084.86 475.67, 1084.98 475.45, 1084.80 475.58 C 1084.61 475.71, 1084.33 476.13, 1083.53 477.02 C 1082.73 477.91, 1082.15 478.65, 1080.79 480.02 C 1079.42 481.39, 1078.50 482.35, 1076.70 483.89 C 1074.90 485.42, 1073.82 486.30, 1071.78 487.70 C 1069.75 489.09, 1068.59 489.79, 1066.53 490.86 C 1064.47 491.92, 1063.33 492.40, 1061.48 493.01 C 1059.63 493.63, 1058.73 493.79, 1057.27 493.94 C 1055.81 494.09, 1055.14 494.03, 1054.19 493.75 C 1053.23 493.48, 1052.85 493.24, 1052.48 492.55 C 1052.10 491.87, 1052.06 491.40, 1052.33 490.33 C 1052.61 489.25, 1052.93 488.56, 1053.85 487.20 C 1054.78 485.84, 1055.50 484.98, 1056.96 483.51 C 1058.41 482.04, 1059.38 481.19, 1061.14 479.85 C 1062.91 478.50, 1063.98 477.80, 1065.78 476.77 C 1067.59 475.74, 1068.57 475.30, 1070.17 474.70 C 1071.77 474.10, 1072.51 473.93, 1073.78 473.79 C 1075.05 473.65, 1075.59 473.84, 1076.53 474.02 C 1077.46 474.19, 1077.81 474.44, 1078.44 474.67 C 1079.07 474.91, 1079.36 475.17, 1079.66 475.19 C 1079.97 475.22, 1080.10 475.08, 1079.96 474.78" fill="none" stroke="currentColor" stroke-width="2" stroke-linecap="round" />
  <path class="path-anim-20" d="M 1123.42,446.92 C 1123.11 447.21, 1122.92 447.53, 1122.24 448.55 C 1121.56 449.57, 1121.11 450.24, 1120.02 452.04 C 1118.94 453.83, 1118.24 455.06, 1116.81 457.53 C 1115.39 459.99, 1114.55 461.56, 1112.89 464.36 C 1111.24 467.16, 1110.23 468.72, 1108.55 471.52 C 1106.88 474.32, 1105.96 475.77, 1104.51 478.35 C 1103.07 480.93, 1102.37 482.23, 1101.35 484.42 C 1100.32 486.62, 1099.92 487.63, 1099.37 489.34 C 1098.82 491.04, 1098.69 491.80, 1098.59 492.96 C 1098.49 494.12, 1098.70 494.51, 1098.87 495.14 C 1099.05 495.76, 1099.25 495.87, 1099.48 496.09 C 1099.71 496.30, 1099.89 496.22, 1100.01 496.20 C 1100.14 496.18, 1100.13 496.07, 1100.09 495.99 C 1100.05 495.92, 1099.93 496.01, 1099.83 495.81 C 1099.73 495.61, 1099.66 495.54, 1099.59 494.98 C 1099.52 494.43, 1099.34 494.12, 1099.49 493.06 C 1099.64 491.99, 1099.77 491.30, 1100.35 489.67 C 1100.92 488.04, 1101.33 487.06, 1102.37 484.91 C 1103.40 482.76, 1104.10 481.48, 1105.53 478.92 C 1106.96 476.36, 1107.84 474.89, 1109.52 472.10 C 1111.20 469.32, 1112.22 467.75, 1113.93 464.98 C 1115.64 462.22, 1116.61 460.72, 1118.08 458.27 C 1119.54 455.82, 1120.23 454.59, 1121.24 452.74 C 1122.25 450.90, 1122.62 450.17, 1123.13 449.04 C 1123.64 447.92, 1123.76 447.56, 1123.82 447.13 C 1123.87 446.71, 1123.74 446.64, 1123.42 446.92" fill="none" stroke="currentColor" stroke-width="2" stroke-linecap="round" />
  <path class="path-anim-21" d="M 1096.32,476.38 C 1096.67 476.49, 1097.03 476.48, 1098.05 476.46 C 1099.07 476.43, 1099.78 476.40, 1101.42 476.25 C 1103.05 476.11, 1104.13 476.00, 1106.21 475.73 C 1108.30 475.47, 1109.53 475.30, 1111.84 474.92 C 1114.15 474.54, 1115.40 474.31, 1117.75 473.84 C 1120.10 473.37, 1121.36 473.15, 1123.59 472.57 C 1125.83 471.99, 1127.89 471.39, 1128.93 470.95 C 1129.97 470.52, 1129.91 470.31, 1128.79 470.40 C 1127.67 470.49, 1125.59 470.97, 1123.33 471.40 C 1121.07 471.84, 1119.85 472.14, 1117.51 472.58 C 1115.17 473.02, 1113.92 473.24, 1111.63 473.58 C 1109.33 473.92, 1108.11 474.03, 1106.03 474.28 C 1103.96 474.54, 1102.88 474.61, 1101.26 474.84 C 1099.63 475.06, 1098.92 475.19, 1097.92 475.41 C 1096.92 475.63, 1096.58 475.74, 1096.26 475.93 C 1095.94 476.13, 1095.96 476.28, 1096.32 476.38" fill="none" stroke="currentColor" stroke-width="2" stroke-linecap="round" />
  <path class="path-anim-22" d="M 1157.16,445.25 C 1156.84 445.48, 1156.64 445.76, 1155.95 446.63 C 1155.25 447.50, 1154.79 448.04, 1153.68 449.61 C 1152.57 451.18, 1151.83 452.25, 1150.39 454.46 C 1148.96 456.68, 1148.12 458.09, 1146.50 460.69 C 1144.87 463.30, 1143.93 464.78, 1142.27 467.47 C 1140.60 470.17, 1139.68 471.60, 1138.18 474.18 C 1136.69 476.76, 1135.95 478.08, 1134.78 480.38 C 1133.60 482.69, 1133.10 483.78, 1132.30 485.70 C 1131.51 487.62, 1131.22 488.49, 1130.80 489.98 C 1130.38 491.46, 1130.35 492.15, 1130.22 493.12 C 1130.08 494.09, 1130.09 494.34, 1130.12 494.82 C 1130.14 495.30, 1130.24 495.38, 1130.33 495.51 C 1130.41 495.64, 1130.50 495.50, 1130.54 495.49 C 1130.58 495.47, 1130.50 495.44, 1130.52 495.44 C 1130.53 495.44, 1130.54 495.59, 1130.60 495.48 C 1130.65 495.37, 1130.70 495.32, 1130.81 494.88 C 1130.91 494.44, 1130.92 494.20, 1131.12 493.28 C 1131.32 492.36, 1131.35 491.70, 1131.79 490.26 C 1132.23 488.83, 1132.50 488.00, 1133.31 486.13 C 1134.11 484.26, 1134.64 483.19, 1135.81 480.92 C 1136.99 478.65, 1137.71 477.33, 1139.19 474.77 C 1140.68 472.20, 1141.58 470.76, 1143.26 468.09 C 1144.93 465.41, 1145.90 463.95, 1147.58 461.38 C 1149.26 458.82, 1150.18 457.47, 1151.63 455.27 C 1153.09 453.08, 1153.81 452.01, 1154.84 450.39 C 1155.87 448.78, 1156.25 448.17, 1156.79 447.19 C 1157.33 446.21, 1157.46 445.88, 1157.53 445.49 C 1157.61 445.11, 1157.48 445.03, 1157.16 445.25" fill="none" stroke="currentColor" stroke-width="2" stroke-linecap="round" />
  <path class="path-anim-23" d="M 1125.56,474.08 C 1125.97 474.19, 1126.39 474.18, 1127.56 474.15 C 1128.72 474.11, 1129.50 474.04, 1131.37 473.93 C 1133.23 473.81, 1134.51 473.70, 1136.88 473.57 C 1139.25 473.44, 1140.63 473.38, 1143.22 473.27 C 1145.81 473.15, 1147.40 473.11, 1149.82 473.01 C 1152.24 472.91, 1153.50 472.87, 1155.31 472.78 C 1157.12 472.70, 1158.16 472.70, 1158.88 472.58 C 1159.59 472.46, 1159.60 472.33, 1158.88 472.17 C 1158.17 472.01, 1157.13 471.89, 1155.31 471.80 C 1153.49 471.70, 1152.22 471.68, 1149.79 471.69 C 1147.36 471.70, 1145.76 471.78, 1143.17 471.87 C 1140.57 471.95, 1139.18 471.98, 1136.80 472.10 C 1134.41 472.23, 1133.12 472.30, 1131.25 472.50 C 1129.38 472.70, 1128.59 472.88, 1127.44 473.10 C 1126.29 473.33, 1125.88 473.43, 1125.50 473.63 C 1125.13 473.83, 1125.15 473.98, 1125.56 474.08" fill="none" stroke="currentColor" stroke-width="2" stroke-linecap="round" />
  <path class="path-anim-24" d="M 1258.23,439.33 C 1257.97 439.55, 1257.89 439.81, 1257.30 440.60 C 1256.71 441.39, 1256.34 441.84, 1255.29 443.30 C 1254.24 444.75, 1253.58 445.74, 1252.05 447.87 C 1250.52 449.99, 1249.63 451.31, 1247.63 453.92 C 1245.63 456.52, 1244.41 458.01, 1242.07 460.87 C 1239.73 463.73, 1238.36 465.32, 1235.93 468.22 C 1233.50 471.11, 1232.17 472.63, 1229.92 475.35 C 1227.67 478.07, 1226.51 479.40, 1224.67 481.81 C 1222.83 484.21, 1221.96 485.37, 1220.74 487.36 C 1219.51 489.36, 1219.05 490.24, 1218.55 491.79 C 1218.05 493.34, 1217.97 493.98, 1218.23 495.11 C 1218.49 496.24, 1218.82 496.71, 1219.85 497.44 C 1220.89 498.16, 1221.65 498.41, 1223.39 498.71 C 1225.13 499.02, 1226.20 499.03, 1228.55 498.96 C 1230.90 498.89, 1232.30 498.72, 1235.14 498.37 C 1237.98 498.03, 1239.62 497.72, 1242.74 497.24 C 1245.86 496.75, 1247.59 496.45, 1250.73 495.94 C 1253.88 495.44, 1255.56 495.17, 1258.47 494.72 C 1261.38 494.27, 1262.83 494.04, 1265.29 493.69 C 1267.76 493.34, 1268.88 493.21, 1270.80 492.98 C 1272.72 492.75, 1273.60 492.70, 1274.89 492.53 C 1276.18 492.37, 1276.56 492.29, 1277.25 492.15 C 1277.95 492.01, 1278.14 491.95, 1278.35 491.84 C 1278.56 491.72, 1278.55 491.64, 1278.32 491.57 C 1278.09 491.51, 1277.89 491.52, 1277.19 491.52 C 1276.49 491.51, 1276.10 491.49, 1274.80 491.57 C 1273.50 491.64, 1272.61 491.70, 1270.68 491.90 C 1268.74 492.10, 1267.61 492.22, 1265.14 492.55 C 1262.66 492.88, 1261.21 493.11, 1258.29 493.57 C 1255.37 494.02, 1253.70 494.33, 1250.55 494.82 C 1247.41 495.32, 1245.68 495.61, 1242.56 496.05 C 1239.45 496.49, 1237.80 496.72, 1234.98 497.02 C 1232.17 497.33, 1230.79 497.49, 1228.50 497.59 C 1226.22 497.68, 1225.20 497.68, 1223.57 497.49 C 1221.94 497.31, 1221.26 497.17, 1220.34 496.67 C 1219.42 496.16, 1219.15 495.86, 1218.97 494.95 C 1218.79 494.03, 1218.89 493.50, 1219.42 492.09 C 1219.96 490.69, 1220.43 489.86, 1221.65 487.93 C 1222.87 486.00, 1223.73 484.85, 1225.53 482.46 C 1227.34 480.07, 1228.45 478.70, 1230.68 475.97 C 1232.91 473.25, 1234.23 471.72, 1236.67 468.84 C 1239.10 465.95, 1240.48 464.37, 1242.86 461.53 C 1245.24 458.69, 1246.50 457.22, 1248.57 454.66 C 1250.65 452.10, 1251.66 450.85, 1253.23 448.73 C 1254.80 446.61, 1255.44 445.59, 1256.42 444.07 C 1257.40 442.55, 1257.70 442.02, 1258.14 441.11 C 1258.58 440.20, 1258.61 439.88, 1258.62 439.52 C 1258.64 439.17, 1258.50 439.12, 1258.23 439.33" fill="none" stroke="currentColor" stroke-width="2" stroke-linecap="round" />
  <path class="path-anim-25" d="M 1300.13,472.14 C 1299.85 472.43, 1299.74 472.85, 1299.17 473.75 C 1298.59 474.66, 1298.15 475.27, 1297.24 476.67 C 1296.32 478.07, 1295.70 479.04, 1294.58 480.75 C 1293.47 482.46, 1292.79 483.47, 1291.65 485.22 C 1290.51 486.98, 1289.85 487.91, 1288.89 489.52 C 1287.92 491.14, 1287.44 491.95, 1286.82 493.28 C 1286.21 494.61, 1285.93 495.56, 1285.81 496.17 C 1285.69 496.79, 1285.84 496.84, 1286.21 496.36 C 1286.59 495.87, 1286.95 494.97, 1287.69 493.74 C 1288.44 492.50, 1288.92 491.74, 1289.94 490.18 C 1290.96 488.63, 1291.60 487.70, 1292.78 485.97 C 1293.96 484.25, 1294.68 483.27, 1295.82 481.56 C 1296.96 479.85, 1297.60 478.89, 1298.46 477.43 C 1299.32 475.96, 1299.69 475.27, 1300.11 474.24 C 1300.53 473.22, 1300.56 472.74, 1300.57 472.31 C 1300.57 471.89, 1300.41 471.85, 1300.13 472.14" fill="none" stroke="currentColor" stroke-width="2" stroke-linecap="round" />
  <path class="path-anim-26" d="M 1311.69,448.46 C 1311.85 448.38, 1311.84 448.32, 1311.79 448.29 C 1311.75 448.26, 1311.60 448.32, 1311.46 448.32 C 1311.33 448.32, 1311.26 448.24, 1311.12 448.28 C 1310.98 448.32, 1310.79 448.41, 1310.77 448.50 C 1310.75 448.59, 1310.82 448.72, 1311.01 448.71 C 1311.19 448.71, 1311.54 448.55, 1311.69 448.46" fill="none" stroke="currentColor" stroke-width="2" stroke-linecap="round" />


</svg>
